<svg aria-hidden="true" style="position: absolute; width: 0; height: 0; overflow: hidden;" version="1.1" xmlns="http://www.w3.org/2000/svg" xmlns:xlink="http://www.w3.org/1999/xlink">
<defs>
<symbol id="icon-avatar" viewBox="0 0 32 32">
<path d="M0 32h32v-32h-32v32z"></path>
</symbol>
<symbol id="icon-calendar" viewBox="0 0 32 32">
<path stroke-linejoin="round" stroke-linecap="butt" stroke-miterlimit="4" stroke-width="2.88" d="M25.328 5.328c1.472 0 2.672 1.184 2.672 2.672v18.656c0 1.472-1.2 2.672-2.672 2.672h-18.672c-1.472 0-2.656-1.2-2.656-2.672v-18.656c0-1.488 1.184-2.672 2.656-2.672h18.672z"></path>
<path stroke-linejoin="round" stroke-linecap="round" stroke-miterlimit="4" stroke-width="2.88" d="M21.328 2.656v5.344"></path>
<path stroke-linejoin="round" stroke-linecap="round" stroke-miterlimit="4" stroke-width="2.88" d="M10.656 2.656v5.344"></path>
<path stroke-linejoin="round" stroke-linecap="round" stroke-miterlimit="4" stroke-width="2.88" d="M4 13.328h24"></path>
</symbol>
<symbol id="icon-check" viewBox="0 0 32 32">
<path stroke-linejoin="round" stroke-linecap="round" stroke-miterlimit="4" stroke-width="2.1818" d="M26.662 9.324l-14.662 14.676-6.676-6.676"></path>
</symbol>
<symbol id="icon-chevron-down" viewBox="0 0 32 32">
<path stroke-linejoin="round" stroke-linecap="round" stroke-miterlimit="4" stroke-width="3.5556" d="M8 12l8 8 8-8"></path>
</symbol>
<symbol id="icon-close" viewBox="0 0 32 32">
<path stroke-linejoin="round" stroke-linecap="round" stroke-miterlimit="4" stroke-width="2.9091" d="M25.324 6.662l-18.662 18.662M6.662 6.662l18.662 18.662"></path>
</symbol>
<symbol id="icon-edit-2" viewBox="0 0 32 32">
<path stroke-linejoin="round" stroke-linecap="butt" stroke-miterlimit="4" stroke-width="2.6667" d="M23.876 3.182c0.462-0.196 0.96-0.302 1.458-0.302 0.48 0 0.978 0.107 1.44 0.302 0.444 0.178 0.871 0.462 1.227 0.8 0.338 0.356 0.622 0.782 0.8 1.227 0.196 0.462 0.302 0.96 0.302 1.44 0 0.498-0.107 0.996-0.302 1.458-0.178 0.444-0.462 0.871-0.8 1.209l-18.009 18.009-7.324 2.009 1.991-7.342 18.009-18.009c0.338-0.338 0.764-0.622 1.209-0.8z"></path>
</symbol>
<symbol id="icon-eye" viewBox="0 0 32 32">
<path stroke-linejoin="round" stroke-linecap="butt" stroke-miterlimit="4" stroke-width="2.9091" d="M15.985 5.324c9.338 0 14.676 10.676 14.676 10.676s-5.338 10.662-14.676 10.662c-9.324 0-14.662-10.662-14.662-10.662s5.338-10.676 14.662-10.676z"></path>
<path stroke-linejoin="round" stroke-linecap="butt" stroke-miterlimit="4" stroke-width="2.9091" d="M16 20c-2.211 0-4-1.804-4-4 0-2.211 1.789-4 4-4 2.196 0 4 1.789 4 4 0 2.196-1.804 4-4 4z"></path>
</symbol>
<symbol id="icon-eye-off" viewBox="0 0 32 32">
<path stroke-linejoin="round" stroke-linecap="round" stroke-miterlimit="4" stroke-width="2.9091" d="M23.913 23.913c-2.284 1.731-5.047 2.705-7.913 2.749-9.338 0-14.676-10.662-14.676-10.662 1.658-3.098 3.956-5.804 6.749-7.927M13.193 5.644c0.916-0.218 1.862-0.32 2.807-0.32 9.324 0 14.662 10.676 14.662 10.676-0.815 1.513-1.775 2.938-2.88 4.247M18.822 18.822c-0.364 0.393-0.815 0.713-1.295 0.931-0.495 0.218-1.018 0.335-1.556 0.335-0.538 0.015-1.076-0.087-1.571-0.291-0.495-0.189-0.96-0.495-1.338-0.873s-0.669-0.829-0.873-1.338c-0.204-0.495-0.305-1.033-0.291-1.556 0-0.538 0.131-1.076 0.349-1.571 0.218-0.48 0.524-0.931 0.916-1.295"></path>
<path stroke-linejoin="round" stroke-linecap="round" stroke-miterlimit="4" stroke-width="2.9091" d="M1.324 1.324l29.338 29.338"></path>
</symbol>
<symbol id="icon-female" viewBox="0 0 32 32">
<path stroke-linejoin="round" stroke-linecap="round" stroke-miterlimit="4" stroke-width="2" d="M16 4c3.68 0 6.667 2.973 6.667 6.667 0 3.68-2.987 6.667-6.667 6.667-3.693 0-6.667-2.987-6.667-6.667 0-3.693 2.973-6.667 6.667-6.667zM16 17.333v10.667M12 24h8"></path>
</symbol>
<symbol id="icon-health" viewBox="0 0 32 32">
<path d="M11.693 10.32c-0.96-0.373-2.013-0.427-3-0.133-0.987 0.28-1.853 0.893-2.467 1.72-0.6 0.827-0.92 1.827-0.893 2.853 0.013 1.027 0.373 2.027 1.013 2.827 0.653 0.8 1.533 1.36 2.533 1.613 1 0.24 2.053 0.147 2.987-0.267 0.947-0.413 1.72-1.12 2.213-2.027 0.493-0.893 0.68-1.933 0.52-2.947-0.013-0.093-0.013-0.187 0.013-0.267s0.053-0.16 0.107-0.24c0.053-0.067 0.12-0.12 0.2-0.173 0.067-0.040 0.147-0.067 0.24-0.080 0.080-0.013 0.173-0.013 0.253 0 0.093 0.027 0.173 0.067 0.24 0.12s0.133 0.107 0.173 0.187c0.053 0.080 0.080 0.16 0.093 0.24 0.2 1.307-0.040 2.64-0.667 3.8-0.64 1.16-1.64 2.080-2.853 2.613-1.2 0.52-2.56 0.64-3.84 0.333-1.28-0.32-2.427-1.053-3.253-2.080s-1.28-2.307-1.307-3.627c-0.027-1.32 0.373-2.613 1.16-3.667 0.773-1.067 1.893-1.853 3.16-2.213 1.267-0.373 2.627-0.307 3.853 0.173 0.080 0.027 0.16 0.080 0.227 0.133 0.053 0.067 0.107 0.133 0.147 0.213s0.053 0.173 0.053 0.253c0 0.093-0.013 0.187-0.040 0.267s-0.080 0.16-0.147 0.213c-0.053 0.067-0.133 0.12-0.213 0.16-0.080 0.027-0.16 0.053-0.253 0.053s-0.173-0.027-0.253-0.053z"></path>
<path d="M9.32 26v-5.333c0-0.187 0.080-0.347 0.2-0.48 0.12-0.12 0.293-0.187 0.467-0.187 0.187 0 0.347 0.067 0.48 0.187 0.12 0.133 0.187 0.293 0.187 0.48v5.333c0 0.173-0.067 0.333-0.187 0.467-0.133 0.12-0.293 0.2-0.48 0.2-0.173 0-0.347-0.080-0.467-0.2-0.12-0.133-0.2-0.293-0.2-0.467z"></path>
<path d="M7.32 22.667c0-0.187 0.080-0.347 0.2-0.48 0.12-0.12 0.293-0.187 0.467-0.187h4c0.173 0 0.347 0.067 0.48 0.187 0.12 0.133 0.187 0.293 0.187 0.48 0 0.173-0.067 0.347-0.187 0.467-0.133 0.12-0.307 0.2-0.48 0.2h-4c-0.173 0-0.347-0.080-0.467-0.2s-0.2-0.293-0.2-0.467zM19.253 10.173c-0.733-0.2-1.52-0.227-2.267-0.067s-1.44 0.507-2.027 1.013c-0.587 0.493-1.040 1.133-1.32 1.84-0.28 0.72-0.373 1.493-0.28 2.253 0.013 0.093 0 0.173-0.027 0.267-0.027 0.080-0.067 0.16-0.12 0.227s-0.12 0.133-0.187 0.173c-0.080 0.040-0.16 0.067-0.253 0.080s-0.173 0-0.267-0.027c-0.080-0.013-0.16-0.053-0.227-0.12-0.067-0.053-0.12-0.12-0.173-0.187-0.040-0.080-0.067-0.173-0.080-0.253-0.147-1.307 0.133-2.64 0.8-3.773 0.68-1.133 1.707-2.013 2.933-2.507s2.587-0.56 3.853-0.2c1.28 0.36 2.387 1.12 3.187 2.187 0.787 1.053 1.2 2.347 1.187 3.667s-0.48 2.6-1.293 3.64c-0.813 1.027-1.96 1.773-3.24 2.093s-2.627 0.213-3.84-0.307c-0.080-0.040-0.147-0.080-0.213-0.147s-0.107-0.133-0.147-0.213c-0.067-0.173-0.053-0.36 0.013-0.52s0.2-0.28 0.36-0.347c0.173-0.067 0.347-0.067 0.52 0 0.587 0.253 1.213 0.387 1.853 0.387s1.267-0.133 1.853-0.4c0.587-0.253 1.107-0.627 1.547-1.093s0.773-1.013 0.987-1.613c0.213-0.6 0.293-1.24 0.253-1.88s-0.213-1.253-0.507-1.827c-0.293-0.56-0.707-1.067-1.2-1.467s-1.067-0.707-1.68-0.88z"></path>
<path d="M21.853 11.467c-0.133-0.12-0.2-0.293-0.2-0.467s0.067-0.347 0.2-0.467l4.987-5c0.067-0.067 0.147-0.12 0.227-0.147 0.080-0.040 0.16-0.053 0.253-0.053 0.093-0.013 0.173 0.013 0.253 0.040 0.093 0.040 0.16 0.080 0.227 0.147 0.053 0.067 0.107 0.133 0.147 0.227 0.027 0.080 0.053 0.16 0.040 0.253 0 0.093-0.013 0.173-0.053 0.253-0.027 0.080-0.080 0.16-0.147 0.213l-5 5c-0.12 0.133-0.293 0.2-0.467 0.2s-0.347-0.067-0.467-0.2z"></path>
<path d="M27.267 10c-0.093 0-0.173-0.013-0.253-0.053s-0.16-0.080-0.213-0.147c-0.067-0.067-0.107-0.133-0.147-0.213-0.027-0.093-0.040-0.173-0.040-0.267l0.027-2.64-2.64 0.027c-0.187 0-0.347-0.067-0.48-0.187s-0.2-0.293-0.2-0.467c0-0.173 0.067-0.347 0.187-0.48 0.12-0.12 0.293-0.2 0.467-0.2l4.013-0.040-0.040 4.013c0 0.080-0.027 0.173-0.053 0.253-0.040 0.080-0.093 0.147-0.147 0.213-0.067 0.053-0.147 0.107-0.227 0.133-0.080 0.040-0.16 0.053-0.253 0.053z"></path>
</symbol>
<symbol id="icon-heart" viewBox="0 0 32 32">
<path stroke-linejoin="round" stroke-linecap="butt" stroke-miterlimit="4" stroke-width="2.6667" d="M25.404 4.551c-0.889-0.373-1.849-0.569-2.809-0.569s-1.92 0.196-2.809 0.569c-0.889 0.373-1.707 0.907-2.382 1.582l-1.404 1.422-1.422-1.422c-1.369-1.369-3.236-2.151-5.191-2.151-1.938 0-3.804 0.782-5.173 2.151-1.387 1.387-2.151 3.253-2.151 5.191s0.764 3.804 2.151 5.191l11.787 11.787 10.364-10.382 1.422-1.404c0.676-0.693 1.209-1.493 1.582-2.382s0.551-1.849 0.551-2.809c0-0.96-0.178-1.92-0.551-2.809s-0.907-1.689-1.582-2.382c-0.693-0.676-1.493-1.209-2.382-1.582z"></path>
</symbol>
<symbol id="icon-male" viewBox="0 0 32 32">
<path stroke-linejoin="round" stroke-linecap="round" stroke-miterlimit="4" stroke-width="2" d="M16 28c-3.693 0-6.667-2.987-6.667-6.667 0-3.693 2.973-6.667 6.667-6.667 3.68 0 6.667 2.973 6.667 6.667 0 3.68-2.987 6.667-6.667 6.667zM16 14.667v-10.667M10.667 9.333l5.333-5.333 5.333 5.333"></path>
</symbol>
<symbol id="icon-paw" viewBox="0 0 35 32">
<path d="M12.355-0c-1.555 0-2.909 0.878-3.766 2.084-0.867 1.206-1.322 2.771-1.322 4.453 0 1.692 0.455 3.247 1.322 4.453 0.857 1.216 2.211 2.094 3.766 2.094s2.919-0.889 3.776-2.094c0.857-1.206 1.322-2.761 1.322-4.453 0-1.682-0.465-3.247-1.322-4.453s-2.221-2.084-3.776-2.084zM17.453 6.537c0 1.692 0.455 3.247 1.312 4.453 0.857 1.216 2.221 2.094 3.776 2.094s2.909-0.889 3.766-2.094c0.867-1.206 1.322-2.761 1.322-4.453 0-1.682-0.455-3.247-1.322-4.453-0.857-1.206-2.211-2.084-3.766-2.084s-2.919 0.878-3.776 2.084c-0.857 1.206-1.312 2.771-1.312 4.453zM12.355 2.909c0.455 0 0.952 0.222 1.417 0.857 0.444 0.635 0.772 1.65 0.772 2.771 0 1.132-0.328 2.137-0.772 2.771-0.465 0.645-0.963 0.867-1.417 0.867s-0.952-0.222-1.407-0.867c-0.455-0.635-0.772-1.64-0.772-2.771 0-1.121 0.317-2.137 0.772-2.771s0.952-0.857 1.407-0.857zM22.541 2.909c0.455 0 0.952 0.222 1.407 0.857s0.772 1.65 0.772 2.771c0 1.132-0.317 2.137-0.772 2.771-0.455 0.645-0.952 0.867-1.407 0.867s-0.952-0.222-1.417-0.867c-0.444-0.635-0.762-1.64-0.762-2.771 0-1.121 0.317-2.137 0.762-2.771 0.465-0.635 0.963-0.857 1.417-0.857zM5.088 10.176c-1.555 0-2.919 0.889-3.776 2.094s-1.312 2.761-1.312 4.453c0 1.682 0.455 3.247 1.312 4.453s2.221 2.094 3.776 2.094c1.555 0 2.909-0.889 3.766-2.094 0.867-1.206 1.322-2.771 1.322-4.453 0-1.692-0.455-3.247-1.322-4.453-0.857-1.216-2.211-2.094-3.766-2.094zM29.808 10.176c-1.555 0-2.909 0.889-3.766 2.094-0.867 1.206-1.322 2.761-1.322 4.453 0 1.682 0.455 3.247 1.322 4.453 0.857 1.206 2.211 2.094 3.766 2.094s2.919-0.889 3.776-2.094c0.857-1.206 1.322-2.771 1.322-4.453 0-1.692-0.465-3.247-1.322-4.453-0.857-1.216-2.221-2.094-3.776-2.094zM5.088 13.084c0.455 0 0.952 0.222 1.407 0.867 0.455 0.635 0.772 1.64 0.772 2.771 0 1.121-0.317 2.137-0.772 2.771s-0.952 0.867-1.407 0.867c-0.455 0-0.952-0.233-1.417-0.867-0.444-0.635-0.762-1.65-0.762-2.771 0-1.132 0.317-2.137 0.762-2.771 0.465-0.645 0.963-0.867 1.417-0.867zM29.808 13.084c0.455 0 0.952 0.222 1.417 0.867 0.444 0.635 0.772 1.64 0.772 2.771 0 1.121-0.328 2.137-0.772 2.771-0.465 0.635-0.963 0.867-1.417 0.867s-0.952-0.233-1.407-0.867c-0.455-0.635-0.772-1.65-0.772-2.771 0-1.132 0.317-2.137 0.772-2.771 0.455-0.645 0.952-0.867 1.407-0.867zM17.453 15.993c-1.946 0-3.3 1.259-3.956 2.359-0.666 1.111-1.068 2.031-1.46 2.412-0.222 0.233-1.629 0.762-3.089 1.502-0.73 0.381-1.47 0.878-2.094 1.64s-1.047 1.819-1.047 3.004c0 2.792 2.306 5.088 5.098 5.088 1.259 0 2.57-0.413 3.861-0.772 1.29-0.37 2.687-0.688 2.687-0.688s1.386 0.317 2.676 0.688c1.29 0.36 2.602 0.772 3.861 0.772 2.792 0 5.098-2.306 5.098-5.098 0-1.153-0.434-2.211-1.047-2.951-0.624-0.74-1.364-1.206-2.094-1.587-1.449-0.772-2.888-1.386-3.089-1.597-0.349-0.338-0.74-1.29-1.417-2.401-0.666-1.121-2.041-2.369-3.988-2.369zM17.453 18.902c0.952 0 1.058 0.233 1.491 0.952s0.762 1.946 1.819 3.004c1.195 1.195 2.718 1.449 3.819 2.041 0.55 0.296 0.973 0.603 1.227 0.91 0.254 0.296 0.37 0.571 0.37 1.090 0 1.216-0.963 2.179-2.19 2.179-0.423 0-1.777-0.317-3.046-0.677-1.259-0.36-2.306-0.772-3.491-0.772-1.195 0-2.242 0.413-3.501 0.772-1.269 0.36-2.623 0.677-3.046 0.677-1.227 0-2.179-0.963-2.179-2.179 0-0.582 0.116-0.889 0.36-1.185s0.688-0.582 1.227-0.857c1.079-0.561 2.591-0.772 3.819-2.010 1.068-1.068 1.386-2.327 1.819-3.046 0.423-0.709 0.529-0.91 1.491-0.91l0.011 0.011z"></path>
</symbol>
<symbol id="icon-search" viewBox="0 0 32 32">
<path stroke-linejoin="round" stroke-linecap="butt" stroke-miterlimit="4" stroke-width="3.5556" d="M14.667 25.333c-5.902 0-10.667-4.782-10.667-10.667 0-5.902 4.764-10.667 10.667-10.667 5.884 0 10.667 4.764 10.667 10.667 0 5.884-4.782 10.667-10.667 10.667z"></path>
<path stroke-linejoin="round" stroke-linecap="round" stroke-miterlimit="4" stroke-width="3.5556" d="M28 28l-5.813-5.813"></path>
</symbol>
<symbol id="icon-star" viewBox="0 0 32 32">
<path d="M15.1 1.66l-3.78 7.16c-0.14 0.28-0.4 0.46-0.7 0.52l-7.98 1.38c-0.8 0.14-1.1 1.1-0.54 1.68l5.64 5.8c0.22 0.24 0.32 0.54 0.26 0.84l-1.14 8.020c-0.12 0.8 0.7 1.4 1.42 1.040l7.26-3.58c0.28-0.12 0.62-0.12 0.9 0l7.26 3.58c0.72 0.36 1.54-0.24 1.42-1.040l-1.14-8.020c-0.060-0.3 0.040-0.6 0.26-0.84l5.64-5.8c0.56-0.58 0.26-1.54-0.54-1.68l-7.98-1.38c-0.3-0.060-0.56-0.24-0.7-0.52l-3.78-7.16c-0.38-0.7-1.4-0.7-1.78 0z"></path>
<path d="M11.32 8.82l3.78-7.16c0.38-0.7 1.4-0.7 1.78 0l3.78 7.16c0.14 0.28 0.4 0.46 0.7 0.52l7.98 1.38c0.8 0.14 1.1 1.1 0.54 1.68l-5.64 5.8c-0.22 0.24-0.32 0.54-0.26 0.84l1.14 8.020c0.12 0.8-0.7 1.4-1.42 1.040l-7.26-3.58c-0.28-0.12-0.62-0.12-0.9 0l-7.26 3.58c-0.72 0.36-1.54-0.24-1.42-1.040l1.14-8.020c0.060-0.3-0.040-0.6-0.26-0.84l-5.64-5.8c-0.56-0.58-0.26-1.54 0.54-1.68l7.98-1.38c0.3-0.060 0.56-0.24 0.7-0.52zM13.46 9.94c-0.5 0.94-1.4 1.58-2.44 1.76l-5.36 0.94 3.8 3.9c0.74 0.76 1.080 1.8 0.92 2.84l-0.78 5.4 4.9-2.4c0.94-0.48 2.040-0.48 3 0l4.88 2.4-0.78-5.4c-0.16-1.040 0.18-2.080 0.92-2.84l3.8-3.9-5.36-0.94c-1.040-0.18-1.94-0.82-2.44-1.76l-2.52-4.8-2.54 4.8z"></path>
</symbol>
<symbol id="icon-trash-2" viewBox="0 0 32 32">
<path stroke-linejoin="round" stroke-linecap="round" stroke-miterlimit="4" stroke-width="2.6667" d="M4 8h24"></path>
<path stroke-linejoin="round" stroke-linecap="round" stroke-miterlimit="4" stroke-width="2.6667" d="M25.333 8v18.667c0 0.693-0.284 1.369-0.782 1.884-0.516 0.498-1.191 0.782-1.884 0.782h-13.333c-0.711 0-1.387-0.284-1.902-0.782-0.498-0.516-0.764-1.191-0.764-1.884v-18.667M10.667 8v-2.667c0-0.711 0.267-1.387 0.764-1.902 0.516-0.498 1.191-0.764 1.902-0.764h5.333c0.693 0 1.369 0.267 1.884 0.764 0.498 0.516 0.782 1.191 0.782 1.902v2.667"></path>
<path stroke-linejoin="round" stroke-linecap="round" stroke-miterlimit="4" stroke-width="2.6667" d="M13.333 14.667v8"></path>
<path stroke-linejoin="round" stroke-linecap="round" stroke-miterlimit="4" stroke-width="2.6667" d="M18.667 14.667v8"></path>
</symbol>
<symbol id="icon-upload-cloud" viewBox="0 0 32 32">
<path stroke-linejoin="round" stroke-linecap="round" stroke-miterlimit="4" stroke-width="2.3111" d="M16 16v12"></path>
<path stroke-linejoin="round" stroke-linecap="round" stroke-miterlimit="4" stroke-width="2.3111" d="M27.182 24.516c1.298-0.711 2.329-1.831 2.916-3.2 0.587-1.351 0.711-2.862 0.356-4.302-0.373-1.44-1.209-2.702-2.364-3.609-1.173-0.924-2.613-1.404-4.089-1.422h-1.689c-0.409-1.547-1.156-3.004-2.204-4.231-1.031-1.227-2.347-2.204-3.822-2.844-1.476-0.658-3.076-0.96-4.693-0.907s-3.182 0.48-4.604 1.244c-1.422 0.747-2.667 1.831-3.609 3.129-0.96 1.298-1.6 2.791-1.884 4.391-0.284 1.582-0.213 3.218 0.213 4.764 0.444 1.547 1.209 2.987 2.293 4.196"></path>
<path stroke-linejoin="round" stroke-linecap="round" stroke-miterlimit="4" stroke-width="2.3111" d="M21.333 21.333l-5.333-5.333-5.333 5.333"></path>
</symbol>
<symbol id="icon-user" viewBox="0 0 32 32">
<path d="M16 20c-4.227 0-7.987 2.040-10.387 5.2-0.52 0.68-0.773 1.027-0.76 1.48 0 0.36 0.227 0.813 0.507 1.027 0.36 0.293 0.867 0.293 1.867 0.293h17.533c1 0 1.507 0 1.867-0.293 0.28-0.213 0.507-0.667 0.507-1.027 0.013-0.453-0.253-0.8-0.76-1.48-2.4-3.16-6.16-5.2-10.373-5.2z"></path>
<path stroke-linejoin="round" stroke-linecap="butt" stroke-miterlimit="4" stroke-width="2.6667" d="M16 20c4.213 0 7.973 2.040 10.373 5.2 0.507 0.68 0.773 1.027 0.76 1.48 0 0.36-0.227 0.813-0.507 1.027-0.36 0.293-0.867 0.293-1.867 0.293h-17.533c-1 0-1.507 0-1.867-0.293-0.28-0.213-0.507-0.667-0.507-1.027-0.013-0.453 0.24-0.8 0.76-1.48 2.4-3.16 6.16-5.2 10.387-5.2z"></path>
<path d="M22 10c0 3.307-2.693 6-6 6-3.32 0-6-2.693-6-6 0-3.32 2.68-6 6-6 3.307 0 6 2.68 6 6z"></path>
<path stroke-linejoin="round" stroke-linecap="butt" stroke-miterlimit="4" stroke-width="2.6667" d="M16 16c-3.32 0-6-2.693-6-6 0-3.32 2.68-6 6-6 3.307 0 6 2.68 6 6 0 3.307-2.693 6-6 6z"></path>
</symbol>
</defs>
</svg>
